<svg width="628" height="425" viewBox="0 0 628 425" fill="none" xmlns="http://www.w3.org/2000/svg">
<rect width="628" height="425" fill="transperant"/>
<g id="about-me" clip-path="url(#clip0)">
<g id="Group 1">
<path id="Vector" d="M613.496 176.258H38.6794C36.2386 176.258 33.8979 177.227 32.172 178.952C30.4462 180.677 29.4766 183.017 29.4766 185.457C29.4766 187.896 30.4462 190.236 32.172 191.961C33.8979 193.686 36.2386 194.655 38.6794 194.655H54.9612V414.721C54.9612 417.161 55.9307 419.5 57.6566 421.225C59.3824 422.951 61.7232 423.92 64.1639 423.92C66.6046 423.92 68.9454 422.951 70.6712 421.225C72.3971 419.5 73.3666 417.161 73.3666 414.721L73.5065 194.655H534.855L577.393 414.721C577.393 417.161 578.363 419.5 580.089 421.225C581.814 422.951 584.155 423.92 586.596 423.92C589.037 423.92 591.377 422.951 593.103 421.225C594.829 419.5 595.799 417.161 595.799 414.721L598.476 194.655H613.496C615.937 194.655 618.278 193.686 620.003 191.961C621.729 190.236 622.699 187.896 622.699 185.457C622.699 183.017 621.729 180.677 620.003 178.952C618.278 177.227 615.937 176.258 613.496 176.258V176.258Z" fill="#333333"/>
<path id="Vector_2" d="M138.316 135.269V174.223H40.6792C38.1203 174.312 35.5689 173.897 33.1708 173C30.7726 172.104 28.5746 170.744 26.7023 168.998C24.8299 167.252 23.3199 165.155 22.2584 162.826C21.197 160.497 20.6048 157.982 20.5158 155.424C20.4267 152.866 20.8426 150.316 21.7396 147.918C22.6366 145.521 23.9972 143.324 25.7436 141.453C27.4901 139.581 29.5882 138.072 31.9182 137.011C34.2482 135.95 36.7645 135.358 39.3234 135.269C39.7752 135.253 40.2271 135.253 40.6792 135.269L138.316 135.269Z" fill="#F2F2F2"/>
<path id="Vector_3" d="M140.715 173.924C140.714 174.321 140.556 174.702 140.275 174.983C139.994 175.264 139.613 175.422 139.216 175.422H38.9402C33.4965 175.418 28.2771 173.254 24.4292 169.405C20.5813 165.556 18.4198 160.337 18.4198 154.896C18.4198 149.455 20.5813 144.236 24.4292 140.387C28.2771 136.538 33.4965 134.374 38.9402 134.37H139.216C139.413 134.369 139.608 134.408 139.791 134.483C139.973 134.558 140.138 134.668 140.278 134.807C140.418 134.946 140.528 135.112 140.604 135.294C140.68 135.476 140.719 135.671 140.719 135.868C140.719 136.065 140.68 136.26 140.604 136.442C140.528 136.624 140.418 136.79 140.278 136.929C140.138 137.068 139.973 137.178 139.791 137.253C139.608 137.328 139.413 137.367 139.216 137.366H38.9402C34.2937 137.373 29.8399 139.223 26.5568 142.51C23.2737 145.797 21.4297 150.251 21.4297 154.896C21.4297 159.54 23.2737 163.995 26.5568 167.282C29.8399 170.569 34.2937 172.419 38.9402 172.426H139.216C139.613 172.426 139.994 172.584 140.275 172.865C140.556 173.146 140.714 173.527 140.715 173.924V173.924Z" fill="#222222"/>
<path id="Vector_4" d="M138.316 144.258H33.3942C33.3149 144.259 33.2387 144.228 33.1822 144.172C33.1257 144.116 33.0935 144.041 33.0928 143.961C33.0921 143.882 33.1228 143.806 33.1783 143.749C33.2337 143.692 33.3094 143.66 33.3887 143.659H138.316C138.395 143.66 138.471 143.692 138.526 143.748C138.582 143.804 138.613 143.88 138.613 143.959C138.613 144.038 138.582 144.113 138.526 144.169C138.471 144.226 138.395 144.258 138.316 144.258Z" fill="#CCCCCC"/>
<path id="Vector_5" d="M138.316 151.45H33.3942C33.3149 151.45 33.2387 151.419 33.1822 151.364C33.1257 151.308 33.0935 151.232 33.0928 151.153C33.0921 151.074 33.1228 150.998 33.1783 150.941C33.2337 150.884 33.3094 150.852 33.3887 150.851H138.316C138.395 150.851 138.471 150.883 138.526 150.94C138.582 150.996 138.613 151.071 138.613 151.15C138.613 151.229 138.582 151.305 138.526 151.361C138.471 151.417 138.395 151.449 138.316 151.45Z" fill="#CCCCCC"/>
<path id="Vector_6" d="M138.316 158.642H33.3942C33.3149 158.642 33.2387 158.611 33.1822 158.555C33.1257 158.5 33.0935 158.424 33.0928 158.345C33.0921 158.265 33.1228 158.189 33.1783 158.132C33.2337 158.076 33.3094 158.043 33.3887 158.042H138.316C138.395 158.043 138.471 158.075 138.526 158.131C138.582 158.187 138.613 158.263 138.613 158.342C138.613 158.421 138.582 158.497 138.526 158.553C138.471 158.609 138.395 158.641 138.316 158.642Z" fill="#CCCCCC"/>
<path id="Vector_7" d="M138.316 165.833H33.3942C33.3149 165.834 33.2387 165.803 33.1822 165.747C33.1257 165.691 33.0935 165.616 33.0928 165.536C33.0921 165.457 33.1228 165.381 33.1783 165.324C33.2337 165.267 33.3094 165.235 33.3887 165.234H138.316C138.395 165.235 138.471 165.267 138.526 165.323C138.582 165.379 138.613 165.455 138.613 165.534C138.613 165.612 138.582 165.688 138.526 165.744C138.471 165.8 138.395 165.832 138.316 165.833Z" fill="#CCCCCC"/>
<path id="Vector_8" d="M119.911 94.2276V133.182H22.2737C17.1058 133.362 12.0782 131.482 8.2968 127.957C4.51543 124.431 2.29007 119.548 2.11028 114.383C1.93049 109.217 3.811 104.191 7.33812 100.412C10.8652 96.6318 15.75 94.4074 20.9179 94.2276C21.3697 94.2119 21.8216 94.2119 22.2737 94.2276H119.911Z" fill="#F2F2F2"/>
<path id="Vector_9" d="M122.309 132.883C122.309 133.28 122.151 133.661 121.87 133.942C121.589 134.223 121.208 134.381 120.81 134.381H20.5348C15.0886 134.381 9.86549 132.218 6.01448 128.369C2.16347 124.52 0 119.299 0 113.855C0 108.411 2.16347 103.19 6.01448 99.3407C9.86549 95.4913 15.0886 93.3287 20.5348 93.3287H120.81C121.007 93.3287 121.202 93.3675 121.384 93.4427C121.566 93.518 121.731 93.6284 121.87 93.7675C122.009 93.9066 122.12 94.0718 122.195 94.2536C122.27 94.4354 122.309 94.6302 122.309 94.827C122.309 95.0237 122.27 95.2185 122.195 95.4003C122.12 95.5821 122.009 95.7473 121.87 95.8864C121.731 96.0255 121.566 96.1359 121.384 96.2112C121.202 96.2864 121.007 96.3252 120.81 96.3252H20.5348C15.8837 96.3252 11.4231 98.1721 8.13424 101.46C4.84541 104.747 2.99778 109.206 2.99778 113.855C2.99778 118.504 4.84541 122.963 8.13424 126.25C11.4231 129.538 15.8837 131.384 20.5348 131.384H120.81C121.208 131.385 121.589 131.543 121.87 131.823C122.151 132.104 122.309 132.485 122.309 132.883Z" fill="#222222"/>
<path id="Vector_10" d="M119.911 103.217H14.9887C14.9094 103.218 14.8332 103.187 14.7767 103.131C14.7202 103.075 14.6881 103 14.6874 102.92C14.6866 102.841 14.7174 102.765 14.7728 102.708C14.8283 102.651 14.9039 102.619 14.9832 102.618H119.911C119.99 102.619 120.065 102.651 120.121 102.707C120.176 102.763 120.208 102.839 120.208 102.918C120.208 102.996 120.176 103.072 120.121 103.128C120.065 103.184 119.99 103.216 119.911 103.217V103.217Z" fill="#CCCCCC"/>
<path id="Vector_11" d="M119.911 110.409H14.9887C14.9094 110.409 14.8332 110.378 14.7767 110.323C14.7202 110.267 14.6881 110.191 14.6874 110.112C14.6866 110.033 14.7174 109.956 14.7728 109.9C14.8283 109.843 14.9039 109.811 14.9832 109.81H119.911C119.99 109.81 120.065 109.842 120.121 109.898C120.176 109.954 120.208 110.03 120.208 110.109C120.208 110.188 120.176 110.264 120.121 110.32C120.065 110.376 119.99 110.408 119.911 110.409Z" fill="#CCCCCC"/>
<path id="Vector_12" d="M119.911 117.6H14.9887C14.9094 117.601 14.8332 117.57 14.7767 117.514C14.7202 117.459 14.6881 117.383 14.6874 117.304C14.6866 117.224 14.7174 117.148 14.7728 117.091C14.8283 117.035 14.9039 117.002 14.9832 117.001H119.911C119.99 117.002 120.065 117.034 120.121 117.09C120.176 117.146 120.208 117.222 120.208 117.301C120.208 117.38 120.176 117.456 120.121 117.512C120.065 117.568 119.99 117.6 119.911 117.6Z" fill="#CCCCCC"/>
<path id="Vector_13" d="M119.911 124.792H14.9887C14.9094 124.792 14.8332 124.761 14.7767 124.706C14.7202 124.65 14.6881 124.574 14.6874 124.495C14.6866 124.416 14.7174 124.34 14.7728 124.283C14.8283 124.226 14.9039 124.194 14.9832 124.193H119.911C119.99 124.194 120.065 124.225 120.121 124.282C120.176 124.338 120.208 124.413 120.208 124.492C120.208 124.571 120.176 124.647 120.121 124.703C120.065 124.759 119.99 124.791 119.911 124.792V124.792Z" fill="#CCCCCC"/>
<path id="Vector_14" d="M233.492 314.102V280.137C233.492 278.635 232.896 277.195 231.834 276.134C230.772 275.072 229.331 274.476 227.829 274.476H98.991C97.489 274.476 96.0486 275.072 94.9866 276.134C93.9245 277.195 93.3278 278.635 93.3278 280.137V314.102H233.492Z" fill="#333333"/>
<path id="Vector_15" d="M233.492 326.839H93.3277V370.71H233.492V326.839Z" fill="#333333"/>
<path id="Vector_16" d="M93.3278 383.447V417.412C93.3278 418.914 93.9245 420.353 94.9866 421.415C96.0486 422.477 97.489 423.073 98.991 423.073H227.829C229.331 423.073 230.772 422.477 231.834 421.415C232.896 420.353 233.492 418.914 233.492 417.412V383.447H93.3278Z" fill="#333333"/>
<path id="Vector_17" d="M162.702 299.95C165.048 299.95 166.95 298.049 166.95 295.704C166.95 293.359 165.048 291.458 162.702 291.458C160.356 291.458 158.455 293.359 158.455 295.704C158.455 298.049 160.356 299.95 162.702 299.95Z" fill="white"/>
<path id="Vector_18" d="M162.702 356.558C165.048 356.558 166.95 354.657 166.95 352.312C166.95 349.968 165.048 348.067 162.702 348.067C160.356 348.067 158.455 349.968 158.455 352.312C158.455 354.657 160.356 356.558 162.702 356.558Z" fill="white"/>
<path id="Vector_19" d="M162.93 411.968C165.276 411.968 167.177 410.067 167.177 407.722C167.177 405.377 165.276 403.477 162.93 403.477C160.584 403.477 158.682 405.377 158.682 407.722C158.682 410.067 160.584 411.968 162.93 411.968Z" fill="white"/>
<path id="Vector_20" d="M217.601 235.749V274.704H119.964C114.799 274.88 109.774 272.998 105.996 269.473C102.217 265.948 99.9939 261.067 99.8141 255.904C99.6342 250.741 101.513 245.717 105.037 241.938C108.561 238.158 113.442 235.932 118.607 235.749C119.059 235.733 119.512 235.733 119.964 235.749H217.601Z" fill="#F2F2F2"/>
<path id="Vector_21" d="M220 274.404C219.999 274.801 219.842 275.182 219.56 275.463C219.279 275.744 218.898 275.902 218.501 275.902H118.225C112.78 275.903 107.558 273.743 103.706 269.896C99.8543 266.049 97.6887 260.831 97.6855 255.388C97.6822 249.946 99.8415 244.725 103.689 240.873C107.536 237.022 112.756 234.855 118.201 234.85H218.501C218.698 234.849 218.893 234.888 219.076 234.963C219.258 235.038 219.424 235.148 219.563 235.287C219.703 235.426 219.814 235.592 219.889 235.774C219.965 235.956 220.004 236.151 220.004 236.348C220.004 236.545 219.965 236.74 219.889 236.922C219.814 237.104 219.703 237.27 219.563 237.409C219.424 237.548 219.258 237.658 219.076 237.733C218.893 237.808 218.698 237.847 218.501 237.846H118.225C113.578 237.852 109.123 239.702 105.84 242.989C102.556 246.276 100.711 250.731 100.711 255.376C100.711 260.021 102.556 264.476 105.84 267.763C109.123 271.05 113.578 272.9 118.225 272.906H218.501C218.898 272.906 219.279 273.064 219.56 273.345C219.842 273.626 219.999 274.007 220 274.404V274.404Z" fill="#222222"/>
<path id="Vector_22" d="M217.601 244.738H112.679C112.6 244.739 112.524 244.708 112.467 244.652C112.411 244.596 112.379 244.521 112.378 244.441C112.377 244.362 112.408 244.286 112.463 244.229C112.519 244.172 112.595 244.14 112.674 244.139H217.601C217.68 244.14 217.756 244.172 217.811 244.228C217.867 244.284 217.898 244.36 217.898 244.439C217.898 244.518 217.867 244.593 217.811 244.649C217.756 244.706 217.68 244.738 217.601 244.738H217.601Z" fill="#CCCCCC"/>
<path id="Vector_23" d="M217.601 251.93H112.679C112.6 251.93 112.524 251.899 112.467 251.844C112.411 251.788 112.379 251.712 112.378 251.633C112.377 251.554 112.408 251.478 112.463 251.421C112.519 251.364 112.595 251.332 112.674 251.331H217.601C217.68 251.332 217.756 251.363 217.811 251.42C217.867 251.476 217.898 251.551 217.898 251.63C217.898 251.709 217.867 251.785 217.811 251.841C217.756 251.897 217.68 251.929 217.601 251.93H217.601Z" fill="#CCCCCC"/>
<path id="Vector_24" d="M217.601 259.122H112.679C112.6 259.122 112.524 259.091 112.467 259.035C112.411 258.98 112.379 258.904 112.378 258.825C112.377 258.746 112.408 258.669 112.463 258.613C112.519 258.556 112.595 258.523 112.674 258.522H217.601C217.68 258.523 217.756 258.555 217.811 258.611C217.867 258.667 217.898 258.743 217.898 258.822C217.898 258.901 217.867 258.977 217.811 259.033C217.756 259.089 217.68 259.121 217.601 259.122H217.601Z" fill="#CCCCCC"/>
<path id="Vector_25" d="M217.601 266.313H112.679C112.6 266.314 112.524 266.283 112.467 266.227C112.411 266.171 112.379 266.096 112.378 266.016C112.377 265.937 112.408 265.861 112.463 265.804C112.519 265.747 112.595 265.715 112.674 265.714H217.601C217.68 265.715 217.756 265.747 217.811 265.803C217.867 265.859 217.898 265.935 217.898 266.014C217.898 266.093 217.867 266.168 217.811 266.224C217.756 266.281 217.68 266.312 217.601 266.313H217.601Z" fill="#CCCCCC"/>
<path id="Vector_26" d="M102.932 81.2324H58.4472C58.0251 81.2321 57.6085 81.3289 57.2298 81.5155L46.0023 87.1338C45.6328 87.2908 45.3177 87.553 45.0962 87.8877C44.8747 88.2224 44.7566 88.6148 44.7566 89.0161C44.7566 89.4174 44.8747 89.8098 45.0962 90.1445C45.3177 90.4791 45.6328 90.7413 46.0023 90.8983L57.2298 96.5166C57.6085 96.7032 58.0251 96.8001 58.4472 96.7997H102.932C103.545 96.8352 104.147 96.6278 104.608 96.2225C105.069 95.8172 105.352 95.2467 105.396 94.6344V83.3977C105.352 82.7854 105.069 82.2149 104.608 81.8096C104.147 81.4044 103.545 81.197 102.932 81.2324Z" fill="#333333"/>
<path id="Vector_27" d="M105.396 83.3978V94.6345C105.352 95.2467 105.069 95.8173 104.608 96.2226C104.147 96.6279 103.545 96.8352 102.932 96.7998H94.0691V81.2324H102.932C103.545 81.197 104.147 81.4044 104.608 81.8097C105.069 82.2149 105.352 82.7855 105.396 83.3978V83.3978Z" fill="#F1EC40"/>
<path id="Vector_28" d="M354.643 175.373L349.946 173.396L346.724 149.861H303.817L300.324 173.3L296.122 175.4C295.921 175.501 295.76 175.666 295.665 175.87C295.57 176.073 295.546 176.303 295.597 176.522C295.649 176.74 295.773 176.935 295.949 177.075C296.126 177.214 296.344 177.29 296.569 177.29H354.256C354.486 177.29 354.709 177.21 354.887 177.064C355.066 176.919 355.188 176.716 355.234 176.49C355.279 176.264 355.245 176.03 355.138 175.826C355.03 175.623 354.855 175.463 354.643 175.373V175.373Z" fill="#333333"/>
<path id="Vector_29" d="M430.891 152.992H220.12C219.014 152.99 217.955 152.549 217.174 151.766C216.392 150.984 215.954 149.924 215.954 148.818V119.109H435.058V148.818C435.058 149.924 434.619 150.984 433.838 151.766C433.057 152.549 431.997 152.99 430.891 152.992V152.992Z" fill="#222222"/>
<path id="Vector_30" d="M435.278 133.15H215.762V6.03168C215.763 4.69764 216.294 3.41868 217.238 2.47539C218.181 1.5321 219.461 1.00149 220.795 1H430.244C431.579 1.00149 432.858 1.5321 433.802 2.47539C434.746 3.41868 435.277 4.69763 435.278 6.03168L435.278 133.15Z" fill="#333333"/>
<path id="Vector_31" d="M422.167 123.924H228.872C227.843 123.923 226.857 123.514 226.129 122.787C225.402 122.06 224.993 121.074 224.992 120.045V14.1054C224.993 13.0769 225.402 12.0908 226.129 11.3636C226.857 10.6363 227.843 10.2272 228.872 10.226H422.167C423.196 10.2272 424.183 10.6363 424.91 11.3636C425.638 12.0908 426.047 13.0769 426.048 14.1054V120.045C426.047 121.074 425.638 122.06 424.91 122.787C424.183 123.514 423.196 123.923 422.167 123.924V123.924Z" fill="#F1EC40"/>
<path id="Vector_32" d="M371.256 161.305C372.504 160.153 373.99 159.288 375.608 158.772C377.227 158.255 378.939 158.1 380.624 158.317C382.309 158.533 383.926 159.117 385.361 160.026C386.796 160.935 388.014 162.147 388.93 163.577L415.075 158.931L421.775 174.124L384.76 180.167C382.255 181.546 379.33 181.957 376.541 181.324C373.751 180.691 371.291 179.057 369.627 176.732C367.962 174.407 367.209 171.552 367.509 168.709C367.809 165.866 369.143 163.231 371.256 161.305V161.305Z" fill="#FFB6B6"/>
<path id="Vector_33" d="M395.463 180.704L422.72 180.365L426.17 180.318L481.626 179.62C481.626 179.62 496.685 165.259 509.798 150.473L507.961 137.185C506.168 124.144 499.696 112.198 489.749 103.57C470.968 116.114 460.077 140.944 460.077 140.944L425.692 149.165L422.252 149.987L400.887 155.09L395.463 180.704Z" fill="#F1EC40"/>
<path id="Vector_34" d="M534.995 262.38H484.116C484.116 264.559 428.499 266.328 428.499 266.328C427.272 267.251 426.154 268.311 425.166 269.486C422.197 273.025 420.574 277.499 420.584 282.119V285.277C420.586 290.511 422.667 295.531 426.37 299.232C430.073 302.933 435.094 305.013 440.331 305.015H534.995C540.231 305.011 545.251 302.93 548.953 299.229C552.656 295.528 554.738 290.51 554.742 285.277V282.119C554.735 276.886 552.652 271.869 548.95 268.169C545.249 264.469 540.23 262.387 534.995 262.38V262.38Z" fill="#333333"/>
<path id="Vector_35" d="M497.996 304.231H477.46V422.721H497.996V304.231Z" fill="#333333"/>
<path id="Vector_36" d="M419.009 422C419.009 424.218 450.129 422.858 488.518 422.858C526.907 422.858 558.027 424.218 558.027 422C558.027 419.781 526.907 402.193 488.518 402.193C450.129 402.193 419.009 419.782 419.009 422Z" fill="#333333"/>
<path id="Vector_37" d="M405.213 408.461L389.929 408.46L382.658 349.531L405.215 349.532L405.213 408.461Z" fill="#FFB6B6"/>
<path id="Vector_38" d="M409.111 423.27L359.828 423.268V422.645C359.829 417.56 361.85 412.683 365.447 409.088C369.044 405.492 373.923 403.472 379.01 403.471H379.012L409.112 403.473L409.111 423.27Z" fill="#222222"/>
<path id="Vector_39" d="M360.04 408.461L344.755 408.46L337.484 349.531L360.042 349.532L360.04 408.461Z" fill="#FFB6B6"/>
<path id="Vector_40" d="M363.937 423.27L314.654 423.268V422.645C314.655 417.56 316.676 412.683 320.273 409.088C323.87 405.492 328.749 403.472 333.836 403.471H333.838L363.938 403.473L363.937 423.27Z" fill="#222222"/>
<path id="Vector_41" d="M496.952 69.2002C511.63 69.2002 523.528 57.3071 523.528 42.6362C523.528 27.9653 511.63 16.0721 496.952 16.0721C482.275 16.0721 470.377 27.9653 470.377 42.6362C470.377 57.3071 482.275 69.2002 496.952 69.2002Z" fill="#FFB6B6"/>
<path id="Vector_42" d="M539.964 224.642C539.964 224.642 548.881 271.773 514.954 277.775C481.027 283.777 432.053 287.995 432.053 287.995L410.06 390.562L380.513 387.925C380.513 387.925 384.443 264.457 394.106 254.798C403.77 245.138 464.848 216.215 464.848 216.215L539.964 224.642Z" fill="#222222"/>
<path id="Vector_43" d="M473.702 204.89L458.864 219.769C458.864 219.769 351.725 237.019 347.592 261.754C341.352 299.098 333.982 380.306 333.982 380.306L366.194 377.891L378.826 285.58L430.365 273.861L489.003 241.918L473.702 204.89Z" fill="#222222"/>
<path id="Vector_44" d="M522.525 26.7794C519.902 21.8319 516.569 11.9716 511.274 10.1429C508.333 9.16828 505.294 8.52112 502.212 8.21316L493.212 11.6732L498.11 7.86524C497.156 7.80845 496.203 7.76202 495.25 7.72596L489.178 10.0605L492.285 7.64518C486.623 7.5871 480.78 8.1755 476.393 11.6204C472.654 14.5572 468.949 25.6822 468.349 30.3979C467.709 34.9092 467.933 39.501 469.01 43.9285L470.548 45.3901C471.086 44.1572 471.49 42.8703 471.754 41.5513C472.306 39.0869 473.365 36.7643 474.864 34.7315C476.363 32.6988 478.269 31.0005 480.461 29.7449L480.544 29.6977C483.124 28.2467 486.253 28.3136 489.211 28.42L503.258 28.9253C506.638 29.0468 510.277 29.2606 512.912 31.3797C514.587 32.9429 515.904 34.8496 516.772 36.969C518.081 39.6104 520.64 49.5731 520.64 49.5731C520.64 49.5731 522.087 47.6926 522.781 49.0923C523.894 45.4403 524.57 41.6696 524.796 37.8588C525.018 34.031 524.235 30.2118 522.525 26.7794V26.7794Z" fill="#333333"/>
<g id="hand">
<path id="Vector_45" d="M615.473 54.3018C613.778 54.4134 612.128 54.8951 610.639 55.7131C609.15 56.5312 607.859 57.6655 606.856 59.0363C605.853 60.4071 605.164 61.981 604.835 63.6471C604.507 65.3133 604.548 67.0311 604.955 68.6797L583.585 84.4369L589.997 99.7536L619.864 77.0777C622.589 76.2096 624.901 74.3725 626.362 71.9143C627.822 69.4562 628.33 66.5478 627.789 63.7404C627.248 60.933 625.695 58.4215 623.425 56.6819C621.155 54.9423 618.326 54.0955 615.473 54.3018V54.3018Z" fill="#FFB6B6"/>
<path id="Vector_46" d="M612.034 86.4703L558.46 145.945C558.46 145.945 532.84 137.747 513.027 128.858L504.125 101.531C502.058 95.1909 501.176 88.5251 501.523 81.8662C528.991 74.5602 560.939 101.745 560.939 101.745L601.041 70.346L612.034 86.4703Z" fill="#F1EC40"/>
</g>
<path id="Vector_47" d="M487.026 229.035C477.468 225.735 467.585 222.322 456.924 221.041L456.466 220.986L456.593 220.543C467.628 181.812 464.874 157.036 459.466 119.82C458.316 111.792 459.794 103.608 463.679 96.4892C467.564 89.3701 473.648 83.6977 481.023 80.3188L481.089 80.2892L511.536 78.3553L511.605 78.351L533.749 84.8609C536.934 85.8044 539.722 87.7657 541.686 90.4445C543.65 93.1233 544.681 96.3717 544.621 99.692C544.381 111.931 544.89 125.596 545.428 140.063C546.637 172.519 547.886 206.08 540.796 227.855L540.759 227.969L540.664 228.043C534.146 233.35 525.98 236.217 517.573 236.151C507.634 236.151 497.491 232.649 487.026 229.035Z" fill="#F1EC40"/>
</g>
</g>
<defs>
<clipPath id="clip0">
<rect width="627.74" height="424.837" fill="white"/>
</clipPath>
</defs>
</svg>
