<svg width="700" height="378" viewBox="0 0 700 378" fill="none" xmlns="http://www.w3.org/2000/svg">
<rect width="700" height="378" fill="transpernt"/>
<g id="hero-svg" clip-path="url(#clip0)">
<g id="squers">
<path id="Vector" opacity="0.2" d="M165.534 67.9802H149.925V83.6006H165.534V67.9802Z" fill="#F1EC40"/>
<path id="Vector_2" opacity="0.2" d="M186.865 67.9802H171.255V83.6006H186.865V67.9802Z" fill="#F1EC40"/>
<path id="Vector_3" opacity="0.2" d="M208.201 67.9802H192.592V83.6006H208.201V67.9802Z" fill="#F1EC40"/>
<path id="Vector_4" opacity="0.2" d="M229.531 67.9802H213.922V83.6006H229.531V67.9802Z" fill="#F1EC40"/>
<path id="Vector_5" opacity="0.2" d="M250.868 67.9802H235.259V83.6006H250.868V67.9802Z" fill="#F1EC40"/>
<path id="Vector_6" d="M272.205 67.9802H256.595V83.6006H272.205V67.9802Z" fill="#F1EC40"/>
<path id="Vector_7" opacity="0.2" d="M293.535 67.9802H277.926V83.6006H293.535V67.9802Z" fill="#F1EC40"/>
<path id="Vector_8" opacity="0.2" d="M314.871 67.9802H299.262V83.6006H314.871V67.9802Z" fill="#F1EC40"/>
<path id="Vector_9" opacity="0.2" d="M336.202 67.9802H320.593V83.6006H336.202V67.9802Z" fill="#F1EC40"/>
<path id="Vector_10" d="M357.539 67.9802H341.929V83.6006H357.539V67.9802Z" fill="#F1EC40"/>
<path id="Vector_11" opacity="0.2" d="M378.875 67.9802H363.266V83.6006H378.875V67.9802Z" fill="#F1EC40"/>
<path id="Vector_12" opacity="0.2" d="M400.205 67.9802H384.596V83.6006H400.205V67.9802Z" fill="#F1EC40"/>
<path id="Vector_13" opacity="0.2" d="M421.542 67.9802H405.933V83.6006H421.542V67.9802Z" fill="#F1EC40"/>
<path id="Vector_14" opacity="0.2" d="M442.878 67.9802H427.269V83.6006H442.878V67.9802Z" fill="#F1EC40"/>
<path id="Vector_15" opacity="0.2" d="M464.209 67.9802H448.6V83.6006H464.209V67.9802Z" fill="#F1EC40"/>
<path id="Vector_16" opacity="0.2" d="M485.546 67.9802H469.936V83.6006H485.546V67.9802Z" fill="#F1EC40"/>
<path id="Vector_17" d="M506.876 67.9802H491.267V83.6006H506.876V67.9802Z" fill="#F1EC40"/>
<path id="Vector_18" d="M528.212 67.9802H512.603V83.6006H528.212V67.9802Z" fill="#F1EC40"/>
<path id="Vector_19" opacity="0.2" d="M549.549 67.9802H533.94V83.6006H549.549V67.9802Z" fill="#F1EC40"/>
<path id="Vector_20" opacity="0.2" d="M570.879 67.9802H555.27V83.6006H570.879V67.9802Z" fill="#F1EC40"/>
<path id="Vector_21" d="M592.216 67.9802H576.607V83.6006H592.216V67.9802Z" fill="#F1EC40"/>
<path id="Vector_22" d="M613.546 67.9802H597.937V83.6006H613.546V67.9802Z" fill="#F1EC40"/>
<path id="Vector_23" opacity="0.2" d="M122.976 68.4966H107.367V84.117H122.976V68.4966Z" fill="#F1EC40"/>
<path id="Vector_24" d="M165.534 87.7644H149.925V103.385H165.534V87.7644Z" fill="#F1EC40"/>
<path id="Vector_25" d="M144.565 68.4966H128.502V83.7181H144.565V68.4966Z" fill="#F1EC40"/>
<path id="Vector_26" opacity="0.2" d="M186.865 87.7644H171.255V103.385H186.865V87.7644Z" fill="#F1EC40"/>
<path id="Vector_27" opacity="0.7" d="M208.201 87.7644H192.592V103.385H208.201V87.7644Z" fill="#F1EC40"/>
<path id="Vector_28" opacity="0.2" d="M229.531 87.7644H213.922V103.385H229.531V87.7644Z" fill="#F1EC40"/>
<path id="Vector_29" opacity="0.4" d="M250.868 87.7644H235.259V103.385H250.868V87.7644Z" fill="#F1EC40"/>
<path id="Vector_30" d="M272.205 87.7644H256.595V103.385H272.205V87.7644Z" fill="#F1EC40"/>
<path id="Vector_31" opacity="0.4" d="M293.535 87.7644H277.926V103.385H293.535V87.7644Z" fill="#F1EC40"/>
<path id="Vector_32" opacity="0.2" d="M314.871 87.7644H299.262V103.385H314.871V87.7644Z" fill="#F1EC40"/>
<path id="Vector_33" opacity="0.4" d="M336.202 87.7644H320.593V103.385H336.202V87.7644Z" fill="#F1EC40"/>
<path id="Vector_34" d="M357.539 87.7644H341.929V103.385H357.539V87.7644Z" fill="#F1EC40"/>
<path id="Vector_35" opacity="0.4" d="M378.875 87.7644H363.266V103.385H378.875V87.7644Z" fill="#F1EC40"/>
<path id="Vector_36" opacity="0.4" d="M400.205 87.7644H384.596V103.385H400.205V87.7644Z" fill="#F1EC40"/>
<path id="Vector_37" opacity="0.2" d="M421.542 87.7644H405.933V103.385H421.542V87.7644Z" fill="#F1EC40"/>
<path id="Vector_38" opacity="0.4" d="M442.878 87.7644H427.269V103.385H442.878V87.7644Z" fill="#F1EC40"/>
<path id="Vector_39" opacity="0.4" d="M464.209 87.7644H448.6V103.385H464.209V87.7644Z" fill="#F1EC40"/>
<path id="Vector_40" opacity="0.2" d="M485.546 87.7644H469.936V103.385H485.546V87.7644Z" fill="#F1EC40"/>
<path id="Vector_41" opacity="0.2" d="M506.876 87.7644H491.267V103.385H506.876V87.7644Z" fill="#F1EC40"/>
<path id="Vector_42" opacity="0.4" d="M528.212 87.7644H512.603V103.385H528.212V87.7644Z" fill="#F1EC40"/>
<path id="Vector_43" opacity="0.2" d="M549.549 87.7644H533.94V103.385H549.549V87.7644Z" fill="#F1EC40"/>
<path id="Vector_44" d="M570.879 87.7644H555.27V103.385H570.879V87.7644Z" fill="#F1EC40"/>
<path id="Vector_45" d="M592.216 87.7644H576.607V103.385H592.216V87.7644Z" fill="#F1EC40"/>
<path id="Vector_46" d="M613.546 87.7644H597.937V103.385H613.546V87.7644Z" fill="#F1EC40"/>
<path id="Vector_47" d="M122.861 107.555H107.252V123.175H122.861V107.555Z" fill="#F1EC40"/>
<path id="Vector_48" d="M79.8605 87.9463H64.2512V103.567H79.8605V87.9463Z" fill="#F1EC40"/>
<path id="Vector_49" opacity="0.7" d="M144.198 107.555H128.588V123.175H144.198V107.555Z" fill="#F1EC40"/>
<path id="Vector_50" opacity="0.7" d="M144.112 87.9463H128.502V103.567H144.112V87.9463Z" fill="#F1EC40"/>
<path id="Vector_51" opacity="0.7" d="M101.841 87.9463H86.2319V103.567H101.841V87.9463Z" fill="#F1EC40"/>
<path id="Vector_52" opacity="0.7" d="M101.841 68.4966H86.2319V84.117H101.841V68.4966Z" fill="#F1EC40"/>
<path id="Vector_53" d="M165.534 107.555H149.925V123.175H165.534V107.555Z" fill="#F1EC40"/>
<path id="Vector_54" opacity="0.7" d="M186.865 107.555H171.255V123.175H186.865V107.555Z" fill="#F1EC40"/>
<path id="Vector_55" opacity="0.7" d="M208.201 107.555H192.592V123.175H208.201V107.555Z" fill="#F1EC40"/>
<path id="Vector_56" opacity="0.2" d="M229.531 107.555H213.922V123.175H229.531V107.555Z" fill="#F1EC40"/>
<path id="Vector_57" opacity="0.4" d="M250.868 107.555H235.259V123.175H250.868V107.555Z" fill="#F1EC40"/>
<path id="Vector_58" opacity="0.4" d="M272.205 107.555H256.595V123.175H272.205V107.555Z" fill="#F1EC40"/>
<path id="Vector_59" d="M293.535 107.555H277.926V123.175H293.535V107.555Z" fill="#F1EC40"/>
<path id="Vector_60" opacity="0.2" d="M314.871 107.555H299.262V123.175H314.871V107.555Z" fill="#F1EC40"/>
<path id="Vector_61" opacity="0.4" d="M336.202 107.555H320.593V123.175H336.202V107.555Z" fill="#F1EC40"/>
<path id="Vector_62" d="M357.539 107.555H341.929V123.175H357.539V107.555Z" fill="#F1EC40"/>
<path id="Vector_63" opacity="0.2" d="M378.875 107.555H363.266V123.175H378.875V107.555Z" fill="#F1EC40"/>
<path id="Vector_64" opacity="0.4" d="M400.205 107.555H384.596V123.175H400.205V107.555Z" fill="#F1EC40"/>
<path id="Vector_65" opacity="0.2" d="M421.542 107.555H405.933V123.175H421.542V107.555Z" fill="#F1EC40"/>
<path id="Vector_66" d="M442.878 107.555H427.269V123.175H442.878V107.555Z" fill="#F1EC40"/>
<path id="Vector_67" opacity="0.2" d="M464.209 107.555H448.6V123.175H464.209V107.555Z" fill="#F1EC40"/>
<path id="Vector_68" opacity="0.7" d="M485.546 107.555H469.936V123.175H485.546V107.555Z" fill="#F1EC40"/>
<path id="Vector_69" opacity="0.7" d="M506.876 107.555H491.267V123.175H506.876V107.555Z" fill="#F1EC40"/>
<path id="Vector_70" opacity="0.4" d="M528.212 107.555H512.603V123.175H528.212V107.555Z" fill="#F1EC40"/>
<path id="Vector_71" opacity="0.2" d="M549.549 107.555H533.94V123.175H549.549V107.555Z" fill="#F1EC40"/>
<path id="Vector_72" d="M570.879 107.555H555.27V123.175H570.879V107.555Z" fill="#F1EC40"/>
<path id="Vector_73" d="M592.216 107.555H576.607V123.175H592.216V107.555Z" fill="#F1EC40"/>
<path id="Vector_74" d="M613.546 107.555H597.937V123.175H613.546V107.555Z" fill="#F1EC40"/>
<path id="Vector_75" opacity="0.2" d="M80.1941 127.339H64.5848V142.959H80.1941V127.339Z" fill="#F1EC40"/>
<path id="Vector_76" opacity="0.2" d="M79.8605 107.396H64.2512V123.016H79.8605V107.396Z" fill="#F1EC40"/>
<path id="Vector_77" opacity="0.2" d="M101.531 127.339H85.9213V142.959H101.531V127.339Z" fill="#F1EC40"/>
<path id="Vector_78" opacity="0.2" d="M122.976 87.9463H107.367V103.567H122.976V87.9463Z" fill="#F1EC40"/>
<path id="Vector_79" opacity="0.2" d="M79.8605 68.4966H64.2512V84.117H79.8605V68.4966Z" fill="#F1EC40"/>
<path id="Vector_80" opacity="0.2" d="M122.861 127.339H107.252V142.959H122.861V127.339Z" fill="#F1EC40"/>
<path id="Vector_81" opacity="0.2" d="M144.198 127.339H128.588V142.959H144.198V127.339Z" fill="#F1EC40"/>
<path id="Vector_82" d="M165.534 127.339H149.925V142.959H165.534V127.339Z" fill="#F1EC40"/>
<path id="Vector_83" opacity="0.7" d="M186.865 127.339H171.255V142.959H186.865V127.339Z" fill="#F1EC40"/>
<path id="Vector_84" opacity="0.7" d="M208.201 127.339H192.592V142.959H208.201V127.339Z" fill="#F1EC40"/>
<path id="Vector_85" opacity="0.2" d="M229.531 127.339H213.922V142.959H229.531V127.339Z" fill="#F1EC40"/>
<path id="Vector_86" opacity="0.2" d="M250.868 127.339H235.259V142.959H250.868V127.339Z" fill="#F1EC40"/>
<path id="Vector_87" opacity="0.4" d="M272.205 127.339H256.595V142.959H272.205V127.339Z" fill="#F1EC40"/>
<path id="Vector_88" opacity="0.4" d="M293.535 127.339H277.926V142.959H293.535V127.339Z" fill="#F1EC40"/>
<path id="Vector_89" d="M314.871 127.339H299.262V142.959H314.871V127.339Z" fill="#F1EC40"/>
<path id="Vector_90" opacity="0.2" d="M336.202 127.339H320.593V142.959H336.202V127.339Z" fill="#F1EC40"/>
<path id="Vector_91" opacity="0.4" d="M357.539 127.339H341.929V142.959H357.539V127.339Z" fill="#F1EC40"/>
<path id="Vector_92" opacity="0.4" d="M378.875 127.339H363.266V142.959H378.875V127.339Z" fill="#F1EC40"/>
<path id="Vector_93" opacity="0.4" d="M400.205 127.339H384.596V142.959H400.205V127.339Z" fill="#F1EC40"/>
<path id="Vector_94" opacity="0.4" d="M421.542 127.339H405.933V142.959H421.542V127.339Z" fill="#F1EC40"/>
<path id="Vector_95" opacity="0.2" d="M442.878 127.339H427.269V142.959H442.878V127.339Z" fill="#F1EC40"/>
<path id="Vector_96" opacity="0.2" d="M464.209 127.339H448.6V142.959H464.209V127.339Z" fill="#F1EC40"/>
<path id="Vector_97" opacity="0.2" d="M485.546 127.339H469.936V142.959H485.546V127.339Z" fill="#F1EC40"/>
<path id="Vector_98" opacity="0.2" d="M506.876 127.339H491.267V142.959H506.876V127.339Z" fill="#F1EC40"/>
<path id="Vector_99" opacity="0.7" d="M528.212 127.339H512.603V142.959H528.212V127.339Z" fill="#F1EC40"/>
<path id="Vector_100" opacity="0.7" d="M549.549 127.339H533.94V142.959H549.549V127.339Z" fill="#F1EC40"/>
<path id="Vector_101" opacity="0.4" d="M570.879 127.339H555.27V142.959H570.879V127.339Z" fill="#F1EC40"/>
<path id="Vector_102" opacity="0.2" d="M592.216 127.339H576.607V142.959H592.216V127.339Z" fill="#F1EC40"/>
<path id="Vector_103" d="M613.546 127.339H597.937V142.959H613.546V127.339Z" fill="#F1EC40"/>
<path id="Vector_104" opacity="0.2" d="M80.1941 147.129H64.5848V162.75H80.1941V147.129Z" fill="#F1EC40"/>
<path id="Vector_105" opacity="0.2" d="M101.531 147.129H85.9214V162.75H101.531V147.129Z" fill="#F1EC40"/>
<path id="Vector_106" opacity="0.4" d="M122.861 147.129H107.252V162.75H122.861V147.129Z" fill="#F1EC40"/>
<path id="Vector_107" opacity="0.4" d="M101.841 107.396H86.2319V123.016H101.841V107.396Z" fill="#F1EC40"/>
<path id="Vector_108" opacity="0.2" d="M144.198 147.129H128.588V162.75H144.198V147.129Z" fill="#F1EC40"/>
<path id="Vector_109" opacity="0.2" d="M165.534 147.129H149.925V162.75H165.534V147.129Z" fill="#F1EC40"/>
<path id="Vector_110" opacity="0.7" d="M186.865 147.129H171.255V162.75H186.865V147.129Z" fill="#F1EC40"/>
<path id="Vector_111" opacity="0.7" d="M208.201 147.129H192.592V162.75H208.201V147.129Z" fill="#F1EC40"/>
<path id="Vector_112" opacity="0.2" d="M229.531 147.129H213.922V162.75H229.531V147.129Z" fill="#F1EC40"/>
<path id="Vector_113" opacity="0.2" d="M250.868 147.129H235.259V162.75H250.868V147.129Z" fill="#F1EC40"/>
<path id="Vector_114" opacity="0.4" d="M272.205 147.129H256.595V162.75H272.205V147.129Z" fill="#F1EC40"/>
<path id="Vector_115" d="M293.535 147.129H277.926V162.75H293.535V147.129Z" fill="#F1EC40"/>
<path id="Vector_116" opacity="0.2" d="M314.871 147.129H299.262V162.75H314.871V147.129Z" fill="#F1EC40"/>
<path id="Vector_117" d="M336.202 147.129H320.593V162.75H336.202V147.129Z" fill="#F1EC40"/>
<path id="Vector_118" d="M357.539 147.129H341.929V162.75H357.539V147.129Z" fill="#F1EC40"/>
<path id="Vector_119" d="M378.875 147.129H363.266V162.75H378.875V147.129Z" fill="#F1EC40"/>
<path id="Vector_120" opacity="0.2" d="M400.205 147.129H384.596V162.75H400.205V147.129Z" fill="#F1EC40"/>
<path id="Vector_121" d="M421.542 147.129H405.933V162.75H421.542V147.129Z" fill="#F1EC40"/>
<path id="Vector_122" opacity="0.2" d="M442.878 147.129H427.269V162.75H442.878V147.129Z" fill="#F1EC40"/>
<path id="Vector_123" opacity="0.2" d="M464.209 147.129H448.6V162.75H464.209V147.129Z" fill="#F1EC40"/>
<path id="Vector_124" opacity="0.2" d="M485.546 147.129H469.936V162.75H485.546V147.129Z" fill="#F1EC40"/>
<path id="Vector_125" opacity="0.2" d="M506.876 147.129H491.267V162.75H506.876V147.129Z" fill="#F1EC40"/>
<path id="Vector_126" opacity="0.2" d="M528.212 147.129H512.603V162.75H528.212V147.129Z" fill="#F1EC40"/>
<path id="Vector_127" opacity="0.7" d="M549.549 147.129H533.94V162.75H549.549V147.129Z" fill="#F1EC40"/>
<path id="Vector_128" opacity="0.2" d="M570.879 147.129H555.27V162.75H570.879V147.129Z" fill="#F1EC40"/>
<path id="Vector_129" opacity="0.2" d="M592.216 147.129H576.607V162.75H592.216V147.129Z" fill="#F1EC40"/>
<path id="Vector_130" d="M613.546 147.129H597.937V162.75H613.546V147.129Z" fill="#F1EC40"/>
<path id="Vector_131" opacity="0.2" d="M80.1941 166.913H64.5848V182.534H80.1941V166.913Z" fill="#F1EC40"/>
<path id="Vector_132" opacity="0.2" d="M101.531 166.913H85.9214V182.534H101.531V166.913Z" fill="#F1EC40"/>
<path id="Vector_133" opacity="0.2" d="M122.861 166.913H107.252V182.534H122.861V166.913Z" fill="#F1EC40"/>
<path id="Vector_134" opacity="0.4" d="M144.198 166.913H128.588V182.534H144.198V166.913Z" fill="#F1EC40"/>
<path id="Vector_135" opacity="0.2" d="M165.534 166.913H149.925V182.534H165.534V166.913Z" fill="#F1EC40"/>
<path id="Vector_136" opacity="0.2" d="M186.865 166.913H171.255V182.534H186.865V166.913Z" fill="#F1EC40"/>
<path id="Vector_137" opacity="0.7" d="M208.201 166.913H192.592V182.534H208.201V166.913Z" fill="#F1EC40"/>
<path id="Vector_138" opacity="0.2" d="M229.531 166.913H213.922V182.534H229.531V166.913Z" fill="#F1EC40"/>
<path id="Vector_139" opacity="0.2" d="M250.868 166.913H235.259V182.534H250.868V166.913Z" fill="#F1EC40"/>
<path id="Vector_140" opacity="0.2" d="M272.205 166.913H256.595V182.534H272.205V166.913Z" fill="#F1EC40"/>
<path id="Vector_141" d="M293.535 166.913H277.926V182.534H293.535V166.913Z" fill="#F1EC40"/>
<path id="Vector_142" opacity="0.2" d="M314.871 166.913H299.262V182.534H314.871V166.913Z" fill="#F1EC40"/>
<path id="Vector_143" d="M336.202 166.913H320.593V182.534H336.202V166.913Z" fill="#F1EC40"/>
<path id="Vector_144" d="M357.539 166.913H341.929V182.534H357.539V166.913Z" fill="#F1EC40"/>
<path id="Vector_145" opacity="0.2" d="M378.875 166.913H363.266V182.534H378.875V166.913Z" fill="#F1EC40"/>
<path id="Vector_146" opacity="0.2" d="M400.205 166.913H384.596V182.534H400.205V166.913Z" fill="#F1EC40"/>
<path id="Vector_147" opacity="0.2" d="M421.542 166.913H405.933V182.534H421.542V166.913Z" fill="#F1EC40"/>
<path id="Vector_148" opacity="0.2" d="M442.878 166.913H427.269V182.534H442.878V166.913Z" fill="#F1EC40"/>
<path id="Vector_149" opacity="0.2" d="M464.209 166.913H448.6V182.534H464.209V166.913Z" fill="#F1EC40"/>
<path id="Vector_150" opacity="0.2" d="M485.546 166.913H469.936V182.534H485.546V166.913Z" fill="#F1EC40"/>
<path id="Vector_151" opacity="0.2" d="M506.876 166.913H491.267V182.534H506.876V166.913Z" fill="#F1EC40"/>
<path id="Vector_152" opacity="0.2" d="M528.212 166.913H512.603V182.534H528.212V166.913Z" fill="#F1EC40"/>
<path id="Vector_153" opacity="0.2" d="M549.549 166.913H533.94V182.534H549.549V166.913Z" fill="#F1EC40"/>
<path id="Vector_154" opacity="0.2" d="M570.879 166.913H555.27V182.534H570.879V166.913Z" fill="#F1EC40"/>
<path id="Vector_155" opacity="0.4" d="M592.216 166.913H576.607V182.534H592.216V166.913Z" fill="#F1EC40"/>
<path id="Vector_156" d="M613.546 166.913H597.937V182.534H613.546V166.913Z" fill="#F1EC40"/>
<path id="Vector_157" opacity="0.7" d="M80.1941 186.704H64.5848V202.324H80.1941V186.704Z" fill="#F1EC40"/>
<path id="Vector_158" opacity="0.7" d="M101.531 186.704H85.9214V202.324H101.531V186.704Z" fill="#F1EC40"/>
<path id="Vector_159" opacity="0.7" d="M122.861 186.704H107.252V202.324H122.861V186.704Z" fill="#F1EC40"/>
<path id="Vector_160" opacity="0.7" d="M144.198 186.704H128.588V202.324H144.198V186.704Z" fill="#F1EC40"/>
<path id="Vector_161" opacity="0.7" d="M165.534 186.704H149.925V202.324H165.534V186.704Z" fill="#F1EC40"/>
<path id="Vector_162" opacity="0.2" d="M186.865 186.704H171.255V202.324H186.865V186.704Z" fill="#F1EC40"/>
<path id="Vector_163" opacity="0.2" d="M208.201 186.704H192.592V202.324H208.201V186.704Z" fill="#F1EC40"/>
<path id="Vector_164" opacity="0.2" d="M229.531 186.704H213.922V202.324H229.531V186.704Z" fill="#F1EC40"/>
<path id="Vector_165" opacity="0.2" d="M250.868 186.704H235.259V202.324H250.868V186.704Z" fill="#F1EC40"/>
<path id="Vector_166" opacity="0.2" d="M272.205 186.704H256.595V202.324H272.205V186.704Z" fill="#F1EC40"/>
<path id="Vector_167" opacity="0.2" d="M293.535 186.704H277.926V202.324H293.535V186.704Z" fill="#F1EC40"/>
<path id="Vector_168" d="M314.871 186.704H299.262V202.324H314.871V186.704Z" fill="#F1EC40"/>
<path id="Vector_169" opacity="0.2" d="M336.202 186.704H320.593V202.324H336.202V186.704Z" fill="#F1EC40"/>
<path id="Vector_170" opacity="0.2" d="M357.539 186.704H341.929V202.324H357.539V186.704Z" fill="#F1EC40"/>
<path id="Vector_171" opacity="0.2" d="M378.875 186.704H363.266V202.324H378.875V186.704Z" fill="#F1EC40"/>
<path id="Vector_172" d="M400.205 186.704H384.596V202.324H400.205V186.704Z" fill="#F1EC40"/>
<path id="Vector_173" opacity="0.2" d="M421.542 186.704H405.933V202.324H421.542V186.704Z" fill="#F1EC40"/>
<path id="Vector_174" opacity="0.2" d="M442.878 186.704H427.269V202.324H442.878V186.704Z" fill="#F1EC40"/>
<path id="Vector_175" opacity="0.2" d="M464.209 186.704H448.6V202.324H464.209V186.704Z" fill="#F1EC40"/>
<path id="Vector_176" opacity="0.2" d="M485.546 186.704H469.936V202.324H485.546V186.704Z" fill="#F1EC40"/>
<path id="Vector_177" opacity="0.2" d="M506.876 186.704H491.267V202.324H506.876V186.704Z" fill="#F1EC40"/>
<path id="Vector_178" opacity="0.2" d="M528.212 186.704H512.603V202.324H528.212V186.704Z" fill="#F1EC40"/>
<path id="Vector_179" opacity="0.2" d="M549.549 186.704H533.94V202.324H549.549V186.704Z" fill="#F1EC40"/>
<path id="Vector_180" opacity="0.2" d="M570.879 186.704H555.27V202.324H570.879V186.704Z" fill="#F1EC40"/>
<path id="Vector_181" opacity="0.2" d="M592.216 186.704H576.607V202.324H592.216V186.704Z" fill="#F1EC40"/>
<path id="Vector_182" d="M613.546 186.704H597.937V202.324H613.546V186.704Z" fill="#F1EC40"/>
</g>
<g id="person">
<path id="Vector_183" d="M449.444 244.17C461.228 244.17 470.781 234.611 470.781 222.819C470.781 211.026 461.228 201.467 449.444 201.467C437.66 201.467 428.108 211.026 428.108 222.819C428.108 234.611 437.66 244.17 449.444 244.17Z" fill="#767D9F"/>
<path id="Vector_184" d="M448.337 195.656C450.466 204.955 452.273 214.324 453.758 223.762C454.205 226.566 454.602 229.524 453.587 232.175C452.736 234.385 451.004 236.112 449.646 238.047C448.288 239.982 447.26 242.462 448.086 244.679C448.912 246.895 451.323 248.108 453.623 248.732C460.207 250.508 467.226 249.216 473.779 247.293C476.746 246.529 479.591 245.35 482.229 243.791C485.007 242.027 487.283 239.578 489.376 237.055C498.927 225.464 505.181 211.552 511.067 197.726C507.285 198.07 503.475 197.509 499.952 196.089C496.429 194.668 493.295 192.43 490.808 189.557C488.397 186.722 486.629 182.773 487.987 179.307C484.004 181.493 479.274 181.64 474.984 183.134C472.324 184.151 469.764 185.411 467.336 186.9C464.407 188.594 461.494 190.321 458.598 192.08C455.288 194.076 452.185 195.852 448.337 195.656Z" fill="#FFB8B8"/>
<path id="Vector_185" d="M492.962 211.687C489.223 218.967 484.358 225.966 477.413 230.301C470.469 234.637 461.119 235.812 454.162 231.526C450.735 229.432 448.141 226.248 445.149 223.566C442.157 220.884 438.418 218.588 434.398 218.937C429.968 219.322 426.498 222.782 423.531 226.095C419.027 231.128 414.677 236.376 411.489 242.333C405.37 253.784 403.92 267.169 404.189 280.151C404.458 293.132 406.337 306.046 406.379 319.027C406.441 334.996 403.736 350.837 401.001 366.568C426.15 363.47 451.329 370.242 476.532 372.808C492.662 374.467 508.914 374.43 525.129 374.387C527.98 374.387 531.015 374.314 533.389 372.734C534.84 371.675 536.014 370.28 536.809 368.668C539.049 364.535 539.948 359.82 540.573 355.16C542.157 343.391 542.206 331.476 542.249 319.597C542.359 290.817 542.463 261.934 538.81 233.381C537.911 226.358 536.761 219.298 534.068 212.728C531.376 206.157 526.983 200.114 520.839 196.593C516.893 194.327 507.745 190.384 503.094 192.668C497.875 195.215 495.464 206.813 492.962 211.687Z" fill="#333333"/>
<path id="Vector_186" d="M494.822 292.954C493.873 275.197 490.012 256.245 498.23 240.484C500.249 236.614 493.005 231.783 495.244 228.036C497.977 223.467 500.05 218.533 501.4 213.383C501.865 211.613 502.238 209.739 501.797 207.964C500.984 204.724 497.783 202.796 495.067 200.824C492.068 198.644 490.526 192 489.56 188.406C488.593 184.812 497.251 189.141 500.733 187.861C505.567 186.091 511.71 187.206 516.532 189C519.224 189.992 522.149 190.078 525.019 190.151C530.593 190.298 536.185 190.439 541.717 189.753C544.201 189.441 546.692 188.969 549.188 189.11C555.558 189.471 561.095 193.831 564.865 198.987C568.634 204.143 571.032 210.15 574.122 215.734C576.699 220.388 579.77 224.784 581.967 229.628C583.913 233.914 585.143 238.519 586.36 243.099L589.499 254.849C590.048 256.53 590.309 258.292 590.27 260.06C590.111 261.94 589.279 263.691 588.434 265.363C585.241 271.559 581.413 277.405 577.011 282.808C570.408 290.909 562.393 298.214 558.47 307.913C556.941 311.691 556.09 315.708 555.313 319.713C552.18 335.729 549.953 351.91 548.643 368.178C541.494 364.867 533.999 362.36 526.297 360.702C522.458 359.88 518.577 359.267 514.671 358.865C511.251 358.51 506.839 359.183 503.584 358.253C498.138 356.703 497.539 347.488 496.713 342.663C495.391 334.978 495.128 327.159 495.079 319.394C495.018 310.565 495.293 301.753 494.822 292.954Z" fill="black"/>
<path id="Vector_187" d="M375.228 259.748C377.804 274.444 380.643 289.182 386.242 302.99C386.101 303.125 385.961 303.248 385.82 303.37C385.324 303.792 384.81 304.19 384.272 304.595C383.018 305.476 381.641 306.223 380.601 307.375C380.207 307.815 379.896 308.323 379.683 308.875C379.491 309.305 379.391 309.772 379.391 310.243C379.391 310.715 379.491 311.181 379.683 311.612C376.764 312.904 373.374 312.506 370.101 312.383C367.28 312.279 364.545 312.383 362.281 313.933C359.136 316.1 358.187 320.264 357.679 324.048C357.492 325.428 357.33 326.81 357.196 328.194C357.065 329.479 356.959 330.769 356.878 332.063C356.6 336.344 356.561 340.637 356.761 344.922C356.794 345.706 356.837 346.49 356.89 347.274C346.892 347.035 337.781 341.818 329.159 336.748C327.189 335.59 325.157 334.372 323.878 332.461C322.7 330.585 322.201 328.361 322.465 326.161C322.465 325.848 322.52 325.548 322.563 325.23C322.837 323.413 323.307 321.631 323.964 319.915C326.662 312.606 330.638 305.837 335.706 299.923C337.897 297.363 340.363 294.859 341.385 291.644C341.831 290.242 341.996 288.754 342.449 287.358C344.481 281.308 351.811 278.448 354.32 272.576C354.932 271.174 355.213 269.637 355.972 268.29C356.655 267.17 357.536 266.185 358.573 265.381C359.019 265.008 359.484 264.647 359.943 264.285C364.243 260.913 368.385 257.352 372.371 253.6C373.113 252.902 373.847 252.196 374.573 251.482C374.476 254.253 374.696 257.026 375.228 259.748Z" fill="black"/>
<path id="Vector_188" d="M436.888 216.285C436.007 217.216 435.052 218.092 434.116 218.961L433.865 219.188L432.874 220.106C431.075 221.66 429.518 223.474 428.254 225.488L428.15 225.66C425.03 231.25 426.186 238.133 427.055 244.483C428.133 252.396 428.617 260.378 428.505 268.363C428.346 279.385 427.049 290.334 427.024 301.343C427.024 303.841 427.079 306.334 427.19 308.832C427.367 312.892 427.673 316.945 428.04 320.999C428.438 325.444 428.915 329.884 429.362 334.323C429.717 337.758 430.053 341.187 430.335 344.616C430.475 346.392 430.61 348.161 430.72 349.937C430.849 352.019 430.953 354.107 431.014 356.189C431.057 357.512 431.081 358.828 431.081 360.151C431.081 360.904 431.081 361.651 431.081 362.398C431.081 363.831 431.042 365.26 430.965 366.684C430.883 368.517 430.759 370.354 430.592 372.195C430.402 374.197 430.065 376.383 428.658 377.792C428.572 377.878 428.481 377.957 428.389 378.037L426.406 377.792C412.74 376.154 398.942 375.908 385.226 377.057C385.526 374.987 385.801 372.924 386.071 370.848C386.193 369.868 386.315 368.882 386.432 367.897C386.566 366.77 386.695 365.643 386.817 364.517C386.958 363.292 387.086 362.067 387.209 360.843C387.527 357.687 387.806 354.53 388.047 351.37C388.402 346.761 388.671 342.144 388.855 337.519C388.944 335.311 389.014 333.1 389.063 330.888C389.132 328.145 389.165 325.399 389.161 322.652C389.161 319.982 389.138 317.308 389.093 314.631C389.093 313.749 389.057 312.867 388.983 311.991C388.931 311.203 388.822 310.419 388.659 309.646C388.205 307.864 387.59 306.126 386.823 304.454C386.689 304.135 386.56 303.841 386.432 303.505C386.358 303.339 386.291 303.168 386.224 303.003C389.748 299.861 392.257 295.655 394.668 291.515C398.578 284.847 402.579 277.885 403.234 270.182C403.889 262.479 400.065 253.827 392.71 251.475C390.709 250.863 388.592 250.692 386.53 250.33C384.584 249.987 380.527 249.21 378.275 247.814C377.051 249.071 375.828 250.306 374.604 251.518C374.678 249.668 375.13 247.853 375.932 246.185L376.801 246.228C376.73 246.032 376.697 245.824 376.703 245.616C376.703 244.96 377.155 244.219 378.122 243.399C381.004 240.95 385.538 240.405 387.356 237.092C388.114 235.714 388.243 234.073 388.855 232.628C390.611 228.507 395.653 226.989 398.688 223.694C401.723 220.4 402.481 215.734 404.935 212.06C406.768 209.377 409.31 207.257 412.278 205.937C412.523 205.821 412.773 205.704 413.024 205.6C418.103 203.426 424.136 202.93 429.398 202.943C431.442 202.943 436.741 203.004 439.335 204.039C439.756 204.189 440.142 204.425 440.467 204.731C443.233 207.743 438.932 214.105 436.888 216.285Z" fill="black"/>
<path id="Vector_189" d="M376.14 245.756C380.866 244.332 385.829 243.863 390.739 244.375C395.648 244.887 400.408 246.37 404.739 248.738C409.145 251.188 413.098 254.604 415.521 259.013C419.162 265.626 419.002 273.599 418.746 281.149C418.617 284.927 418.452 288.839 416.787 292.232C414.86 296.157 411.225 298.851 407.517 301.055C405.194 302.538 402.65 303.64 399.979 304.319C395.867 305.213 391.596 304.454 387.454 303.707C382.95 302.874 378.116 301.87 374.989 298.514C373.154 296.567 372.15 294.038 371.159 291.564C369.735 287.992 368.308 284.425 366.876 280.861C364.398 274.67 363.559 269.521 366.833 263.489C368.32 260.74 370.137 258.168 371.606 255.4C372.34 253.992 374.971 246.118 376.14 245.756Z" fill="black"/>
<path id="Vector_190" d="M633.304 351.609V369.917C620.753 375.135 607.288 377.8 593.697 377.755H428.677C428.591 377.841 428.499 377.92 428.407 378L426.425 377.755H132.884C108.255 377.755 85.4318 371.105 66.7142 359.777V331.825L207.889 315.518H207.999L290.212 322.487L311.488 324.324L322.538 325.261L345.411 327.202L357.177 328.2L374.31 329.657L376.721 329.859L389.069 330.906L405.823 332.284L429.38 334.28L468.651 337.617L496.278 339.962L541.643 343.814L550.271 344.543L551.201 344.622L552.009 344.69L563.402 345.657L575.909 346.722L577.359 346.845L633.304 351.609Z" fill="#F1EC40"/>
<path id="Vector_191" d="M467.482 350.935L290.561 320.717L283.702 355.43L364.802 365.147L389.773 368.276L458.463 354.738L467.482 350.935Z" fill="black"/>
<path id="Vector_192" d="M375.901 366.537L464.539 349.864C464.983 349.779 465.44 349.793 465.877 349.906C466.314 350.018 466.721 350.226 467.068 350.515C467.416 350.803 467.695 351.165 467.886 351.575C468.077 351.984 468.176 352.431 468.174 352.882C468.176 353.599 467.926 354.294 467.469 354.846C467.012 355.397 466.376 355.771 465.671 355.901L379.108 372.122L375.901 366.537Z" fill="black"/>
<path id="Vector_193" d="M414.352 314.104C417.112 313.847 419.908 313.412 422.392 312.187C425.452 310.663 427.832 308.036 430.665 306.101C436.894 301.815 445.228 301.239 452.369 303.701C459.51 306.162 465.469 311.434 469.642 317.729C472.414 321.923 474.495 327.275 472.537 331.904C471.865 333.319 471.018 334.644 470.016 335.848L464.912 342.522C463.943 343.925 462.777 345.181 461.449 346.251C459.54 347.641 457.166 348.21 454.829 348.553C448.618 349.46 442.297 348.945 436.037 349.362C425.287 350.078 414.787 353.544 404.011 353.427C397.819 353.36 391.706 352.111 385.655 350.862L358.872 345.351C354.21 344.396 348.941 343 346.745 338.768C345.76 336.864 345.576 334.66 345.46 332.517C345.142 326.614 345.46 320.05 349.547 315.794C353.39 311.802 359.466 310.54 364.055 307.589C369.672 303.97 371.526 305.14 377.449 307.858C389.005 313.095 401.719 315.247 414.352 314.104Z" fill="#FFB8B8"/>
<path id="Vector_194" opacity="0.05" d="M414.352 314.104C417.112 313.847 419.908 313.412 422.392 312.187C425.452 310.663 427.832 308.036 430.665 306.101C436.894 301.815 445.228 301.239 452.369 303.701C459.51 306.162 465.469 311.434 469.642 317.729C472.414 321.923 474.495 327.275 472.537 331.904C471.865 333.319 471.018 334.644 470.016 335.848L464.912 342.522C463.943 343.925 462.777 345.181 461.449 346.251C459.54 347.641 457.166 348.21 454.829 348.553C448.618 349.46 442.297 348.945 436.037 349.362C425.287 350.078 414.787 353.544 404.011 353.427C397.819 353.36 391.706 352.111 385.655 350.862L358.872 345.351C354.21 344.396 348.941 343 346.745 338.768C345.76 336.864 345.576 334.66 345.46 332.517C345.142 326.614 345.46 320.05 349.547 315.794C353.39 311.802 359.466 310.54 364.055 307.589C369.672 303.97 371.526 305.14 377.449 307.858C389.005 313.095 401.719 315.247 414.352 314.104Z" fill="black"/>
<path id="Vector_195" d="M521.904 305.709C514.39 308.618 506.833 311.538 498.964 313.271C485.772 316.18 471.968 315.721 458.879 319.045C451.965 320.809 445.094 323.65 437.99 323.075C434.814 322.817 431.748 321.85 428.658 321.115C411.299 316.829 391.566 318.219 377.468 329.241C372.646 333.006 368.699 337.703 365.12 342.712C364.354 343.794 363.836 345.031 363.604 346.337C363.371 347.642 363.43 348.983 363.775 350.263C364.121 351.543 364.745 352.731 365.602 353.741C366.46 354.752 367.53 355.561 368.736 356.109C374.219 358.633 380.091 360.2 386.101 360.745C394.136 361.455 402.206 360.316 410.198 359.177C422.056 357.493 433.92 355.803 445.748 353.911C449.995 353.232 454.241 352.527 458.512 351.988C489.247 348.1 520.539 352.827 551.354 349.582C554.469 349.251 557.638 348.823 560.471 347.494C567.643 344.126 571.192 335.248 569.711 327.447C568.23 319.646 562.515 313.161 555.637 309.181C549.873 305.832 543.657 304.478 537.238 303.058C531.278 301.668 527.643 303.505 521.904 305.709Z" fill="#FFB8B8"/>
<path id="Vector_196" opacity="0.1" d="M587.823 259.074C591.212 263.52 591.934 269.484 591.567 275.05C591.2 280.616 589.879 286.121 589.683 291.711C589.413 299.378 591.261 307.019 590.949 314.661C590.729 320.007 589.462 325.248 587.963 330.38C586.195 336.435 583.637 342.944 578.051 345.853C570.635 349.717 555.08 347.543 547.279 350.568C547.989 346.141 554.793 339.73 555.503 335.303C555.992 332.241 556.488 329.094 555.962 326.026C555.288 322.113 552.994 318.641 550.271 315.751C545.939 311.153 540.285 307.693 534.074 306.566C527.864 305.44 512.658 306.364 507.69 310.289C507.078 306.236 518.459 302.329 522.461 301.453C524.455 301.006 526.744 301.257 528.341 299.99C531.4 297.59 529.179 292.807 529.326 288.968C529.442 285.906 531.229 283.102 531.59 280.04C532.202 275.142 529.008 270.151 530.262 265.345C530.727 263.569 531.761 262.007 532.477 260.317C534.656 255.143 533.701 249.24 532.538 243.742C531.816 240.288 531.113 236.394 533.034 233.449C534.815 230.699 539.869 240.49 543.106 240.037C553.795 238.537 563.469 230.607 572.103 237.098C576.503 240.405 577.078 243.834 578.834 248.555C580.541 253.049 584.965 255.351 587.823 259.074Z" fill="black"/>
<path id="Vector_197" d="M589.658 259.074C593.048 263.52 593.77 269.484 593.403 275.05C593.036 280.616 591.714 286.121 591.518 291.711C591.249 299.378 593.097 307.019 592.785 314.661C592.565 320.007 591.298 325.248 589.799 330.38C588.031 336.435 585.473 342.944 579.886 345.853C572.47 349.717 556.916 347.543 549.114 350.568C549.824 346.141 556.628 339.73 557.338 335.303C557.828 332.241 558.323 329.094 557.797 326.026C557.124 322.113 554.829 318.641 552.107 315.751C547.774 311.153 542.121 307.693 535.91 306.566C529.699 305.44 514.494 306.364 509.525 310.289C508.913 306.236 520.294 302.329 524.296 301.453C526.291 301.006 528.579 301.257 530.177 299.99C533.236 297.59 531.015 292.807 531.162 288.968C531.278 285.906 533.065 283.102 533.426 280.04C534.038 275.142 530.843 270.151 532.098 265.345C532.563 263.569 533.597 262.007 534.313 260.317C536.491 255.143 535.537 249.24 534.374 243.742C533.652 240.288 532.948 236.394 534.87 233.449C536.65 230.699 540.132 229.658 543.369 229.199C554.207 227.732 565.188 230.567 573.963 237.098C578.363 240.405 578.938 243.834 580.694 248.555C582.377 253.049 586.801 255.351 589.658 259.074Z" fill="black"/>
<path id="Vector_198" d="M184.79 230.062L218.059 353.103C218.467 354.61 219.324 355.958 220.517 356.965C221.71 357.973 223.181 358.593 224.734 358.742L374.476 373.138C375.696 373.256 376.927 373.079 378.065 372.623C379.203 372.167 380.215 371.445 381.017 370.516C381.819 369.588 382.387 368.481 382.673 367.288C382.959 366.095 382.956 364.851 382.663 363.659L346.231 215.244C345.797 213.48 344.753 211.927 343.283 210.861C341.813 209.795 340.013 209.284 338.203 209.421L191.601 220.394C190.475 220.481 189.382 220.816 188.401 221.375C187.42 221.934 186.574 222.702 185.923 223.625C185.273 224.549 184.834 225.605 184.638 226.717C184.442 227.83 184.494 228.972 184.79 230.062Z" fill="black"/>
<path id="Vector_199" d="M481.623 254.072C490.714 254.072 498.083 246.601 498.083 237.386C498.083 228.171 490.714 220.7 481.623 220.7C472.533 220.7 465.163 228.171 465.163 237.386C465.163 246.601 472.533 254.072 481.623 254.072Z" fill="black"/>
<path id="Vector_200" d="M495.14 206.947C495.14 206.947 498.609 217.271 488.372 221.612L487.063 223.903L493.475 230.234C493.475 230.234 501.381 215.801 500.524 210.676C500.524 210.676 499.301 205.472 495.14 206.947Z" fill="black"/>
<path id="Vector_201" d="M483.514 254.072C492.28 254.072 499.386 246.96 499.386 238.188C499.386 229.416 492.28 222.304 483.514 222.304C474.748 222.304 467.642 229.416 467.642 238.188C467.642 246.96 474.748 254.072 483.514 254.072Z" fill="#F1EC40"/>
<path id="Vector_202" d="M500.604 213.021L498.083 208.858L494.412 208.337C495.195 194.627 491.64 190.543 491.64 190.543L490.814 190.463L487.216 190.114L480.448 183.085V181.089C489.957 182.222 495.213 186.741 498.052 192.037C503.07 201.332 500.604 213.021 500.604 213.021Z" fill="#F1EC40"/>
<path id="Vector_203" opacity="0.1" d="M490.844 187.941V190.463L487.246 190.114L480.479 183.085C480.479 183.085 490.948 185.43 490.844 187.941Z" fill="black" stroke="#4C4981" stroke-miterlimit="10"/>
<path id="Vector_204" opacity="0.1" d="M500.604 213.021L498.083 208.858V192.062C503.07 201.332 500.604 213.021 500.604 213.021Z" fill="black" stroke="#4C4981" stroke-miterlimit="10"/>
<path id="Vector_205" d="M454.184 244.717C458.407 242.277 458.225 234.051 453.778 226.342C449.331 218.634 442.302 214.363 438.079 216.803C433.856 219.243 434.038 227.47 438.485 235.178C442.932 242.886 449.961 247.157 454.184 244.717Z" fill="black"/>
<path id="Vector_206" d="M448.514 229.413C452.962 237.123 458.42 242.272 454.198 244.722C449.976 247.171 437.677 245.946 433.229 238.231C428.781 230.516 432.819 219.861 437.041 217.412C441.263 214.963 444.059 221.686 448.514 229.413Z" fill="#F1EC40"/>
<path id="Vector_207" opacity="0.1" d="M488.122 173.876C488.122 198.509 471.276 222.249 446.66 222.249C434.838 222.249 423.5 217.549 415.14 209.184C406.78 200.818 402.084 189.472 402.084 177.641C402.084 165.811 406.78 154.464 415.14 146.099C423.5 137.733 434.838 133.034 446.66 133.034C471.276 133.058 488.122 149.236 488.122 173.876Z" fill="black"/>
<path id="Vector_208" d="M446.66 221.049C471.279 221.049 491.236 201.077 491.236 176.441C491.236 151.805 471.279 131.833 446.66 131.833C422.041 131.833 402.084 151.805 402.084 176.441C402.084 201.077 422.041 221.049 446.66 221.049Z" fill="#FFB8B8"/>
<path id="Vector_209" d="M442.744 156.675C448.049 158.629 451.188 164.115 455.948 167.171C462.679 171.457 471.441 170.349 479.127 168.23C483.41 167.06 487.889 165.634 492.105 166.932C492.725 167.207 493.409 167.304 494.081 167.214C494.999 166.95 495.452 165.934 495.752 165.028C500.965 149.475 498.621 131.858 490.753 117.468C488.721 113.758 486.286 110.169 482.933 107.591C480.289 105.565 477.181 104.236 474.048 103.103C468.323 101.045 462.401 99.5825 456.377 98.7373C455.313 98.5438 454.226 98.5088 453.152 98.6332C451.677 98.872 450.356 99.668 449.04 100.378C443.406 103.401 437.157 105.099 430.769 105.344C422.203 105.669 412.413 103.648 405.81 109.147C397.856 115.742 399.838 128.606 394.68 137.559C391.266 143.48 384.682 147.778 383.599 154.52C383.317 156.581 383.448 158.677 383.984 160.686C386.505 171.059 396.54 179.093 407.236 179.282C408.878 179.408 410.523 179.071 411.984 178.309C412.941 177.655 413.787 176.851 414.487 175.927C421.493 167.624 429.509 151.801 442.744 156.675Z" fill="black"/>
<path id="Vector_210" opacity="0.1" d="M495.752 160.515C495.452 161.421 494.999 162.437 494.081 162.701C493.409 162.791 492.725 162.694 492.105 162.419C487.889 161.121 483.385 162.548 479.133 163.717C471.441 165.836 462.661 166.969 455.954 162.658C451.188 159.596 448.055 154.085 442.744 152.163C429.509 147.264 421.493 163.111 414.468 171.414C413.768 172.338 412.923 173.142 411.966 173.796C410.505 174.558 408.86 174.895 407.218 174.77C396.558 174.58 386.517 166.546 383.966 156.173C383.825 155.561 383.703 154.949 383.611 154.336C383.611 154.391 383.611 154.44 383.58 154.496C383.298 156.556 383.429 158.652 383.966 160.662C386.487 171.034 396.528 179.068 407.218 179.258C408.86 179.383 410.505 179.046 411.966 178.284C412.923 177.631 413.768 176.826 414.468 175.902C421.493 167.599 429.509 151.777 442.744 156.651C448.055 158.604 451.188 164.091 455.954 167.146C462.685 171.432 471.441 170.324 479.133 168.205C483.416 167.036 487.889 165.609 492.105 166.907C492.725 167.182 493.409 167.28 494.081 167.189C494.999 166.926 495.452 165.909 495.752 165.003C497.854 158.639 498.783 151.946 498.493 145.249C498.313 150.443 497.39 155.584 495.752 160.515Z" fill="black"/>
</g>
</g>
<defs>
<clipPath id="clip0">
<rect width="700" height="378" fill="white"/>
</clipPath>
</defs>
</svg>
